<mxfile host="app.diagrams.net" modified="2021-10-20T17:59:01.238Z" agent="5.0 (Windows NT 10.0; Win64; x64) AppleWebKit/537.36 (KHTML, like Gecko) Chrome/94.0.4606.81 Safari/537.36 Edg/94.0.992.50" etag="OwgpvXpi-7_2bssE8M85" version="15.5.6" type="github">
  <diagram id="YZUznTvgLl3TDaF4M92F" name="Page-1">
    <mxGraphModel dx="1331" dy="717" grid="1" gridSize="10" guides="1" tooltips="1" connect="1" arrows="1" fold="1" page="1" pageScale="1" pageWidth="850" pageHeight="1100" math="0" shadow="0">
      <root>
        <mxCell id="0" />
        <mxCell id="1" parent="0" />
        <mxCell id="Z1djOML-ywt9o6m-iie2-1" value="Test Environment" style="rounded=0;whiteSpace=wrap;html=1;" vertex="1" parent="1">
          <mxGeometry x="200" y="200" width="120" height="120" as="geometry" />
        </mxCell>
        <mxCell id="Z1djOML-ywt9o6m-iie2-2" value="Dev Envrionment" style="rounded=0;whiteSpace=wrap;html=1;" vertex="1" parent="1">
          <mxGeometry x="40" y="200" width="120" height="120" as="geometry" />
        </mxCell>
        <mxCell id="Z1djOML-ywt9o6m-iie2-3" value="Prod Environment" style="rounded=0;whiteSpace=wrap;html=1;" vertex="1" parent="1">
          <mxGeometry x="560" y="200" width="120" height="120" as="geometry" />
        </mxCell>
        <mxCell id="Z1djOML-ywt9o6m-iie2-4" value="Hotfix Environment" style="rounded=0;whiteSpace=wrap;html=1;" vertex="1" parent="1">
          <mxGeometry x="360" y="80" width="120" height="120" as="geometry" />
        </mxCell>
        <mxCell id="Z1djOML-ywt9o6m-iie2-5" value="Staging Environment" style="rounded=0;whiteSpace=wrap;html=1;" vertex="1" parent="1">
          <mxGeometry x="360" y="320" width="120" height="120" as="geometry" />
        </mxCell>
        <mxCell id="Z1djOML-ywt9o6m-iie2-6" value="" style="endArrow=classic;html=1;rounded=0;" edge="1" parent="1" source="Z1djOML-ywt9o6m-iie2-2">
          <mxGeometry width="50" height="50" relative="1" as="geometry">
            <mxPoint x="160" y="310" as="sourcePoint" />
            <mxPoint x="200" y="260" as="targetPoint" />
          </mxGeometry>
        </mxCell>
        <mxCell id="Z1djOML-ywt9o6m-iie2-7" value="" style="endArrow=classic;html=1;rounded=0;exitX=0.399;exitY=1.008;exitDx=0;exitDy=0;entryX=0;entryY=0.5;entryDx=0;entryDy=0;exitPerimeter=0;" edge="1" parent="1" source="Z1djOML-ywt9o6m-iie2-1" target="Z1djOML-ywt9o6m-iie2-5">
          <mxGeometry relative="1" as="geometry">
            <mxPoint x="370" y="370" as="sourcePoint" />
            <mxPoint x="470" y="370" as="targetPoint" />
            <Array as="points">
              <mxPoint x="248" y="380" />
            </Array>
          </mxGeometry>
        </mxCell>
        <mxCell id="Z1djOML-ywt9o6m-iie2-8" value="Label" style="edgeLabel;resizable=0;html=1;align=center;verticalAlign=middle;" connectable="0" vertex="1" parent="Z1djOML-ywt9o6m-iie2-7">
          <mxGeometry relative="1" as="geometry" />
        </mxCell>
        <mxCell id="Z1djOML-ywt9o6m-iie2-9" value="" style="endArrow=classic;html=1;rounded=0;exitX=1;exitY=0.5;exitDx=0;exitDy=0;entryX=0.5;entryY=1;entryDx=0;entryDy=0;" edge="1" parent="1" source="Z1djOML-ywt9o6m-iie2-5" target="Z1djOML-ywt9o6m-iie2-3">
          <mxGeometry relative="1" as="geometry">
            <mxPoint x="370" y="370" as="sourcePoint" />
            <mxPoint x="470" y="370" as="targetPoint" />
            <Array as="points">
              <mxPoint x="620" y="380" />
            </Array>
          </mxGeometry>
        </mxCell>
        <mxCell id="Z1djOML-ywt9o6m-iie2-10" value="Label" style="edgeLabel;resizable=0;html=1;align=center;verticalAlign=middle;" connectable="0" vertex="1" parent="Z1djOML-ywt9o6m-iie2-9">
          <mxGeometry relative="1" as="geometry" />
        </mxCell>
        <mxCell id="Z1djOML-ywt9o6m-iie2-11" value="" style="endArrow=classic;html=1;rounded=0;exitX=1;exitY=0.5;exitDx=0;exitDy=0;entryX=0.5;entryY=0;entryDx=0;entryDy=0;" edge="1" parent="1" source="Z1djOML-ywt9o6m-iie2-4" target="Z1djOML-ywt9o6m-iie2-3">
          <mxGeometry relative="1" as="geometry">
            <mxPoint x="370" y="370" as="sourcePoint" />
            <mxPoint x="470" y="370" as="targetPoint" />
            <Array as="points">
              <mxPoint x="620" y="140" />
            </Array>
          </mxGeometry>
        </mxCell>
        <mxCell id="Z1djOML-ywt9o6m-iie2-12" value="Label" style="edgeLabel;resizable=0;html=1;align=center;verticalAlign=middle;" connectable="0" vertex="1" parent="Z1djOML-ywt9o6m-iie2-11">
          <mxGeometry relative="1" as="geometry" />
        </mxCell>
      </root>
    </mxGraphModel>
  </diagram>
</mxfile>
